<svg class="icon" width="200px" height="200.00px" viewBox="0 0 1024 1024" version="1.1" xmlns="http://www.w3.org/2000/svg">
    <path d="M967.11111111 102.4v236.65777778c0 25.48622222-20.02488889 45.51111111-45.51111111 45.51111111S876.08888889 364.544 876.08888889 339.05777778V202.52444445L455.56622222 623.04711111c-9.10222222 9.10222222-20.02488889 12.74311111-32.768 12.74311111-10.92266667 0-23.66577778-3.64088889-32.768-12.74311111-18.20444445-18.20444445-18.20444445-47.33155555 0-63.71555556L803.27111111 147.91111111h-118.32888889c-25.48622222 0-45.51111111-20.02488889-45.51111111-45.51111111S659.456 56.88888889 684.94222222 56.88888889h236.65777778C947.08622222 56.88888889 967.11111111 76.91377778 967.11111111 102.4z m-45.51111111 449.64977778c-25.48622222 0-45.51111111 20.02488889-45.51111111 45.51111111v192.96711111c0 47.33155555-38.22933333 85.56088889-85.56088889 85.56088889H233.472c-47.33155555 0-85.56088889-38.22933333-85.56088889-85.56088889V233.472c0-47.33155555 38.22933333-85.56088889 85.56088889-85.56088889h196.608c25.48622222 0 45.51111111-20.02488889 45.51111111-45.51111111S455.56622222 56.88888889 430.08 56.88888889H233.472C136.98844445 56.88888889 56.88888889 136.98844445 56.88888889 233.472v557.056c0 96.48355555 80.09955555 176.58311111 176.58311111 176.58311111h557.056c96.48355555 0 176.58311111-80.09955555 176.58311111-176.58311111V597.56088889c0-25.48622222-20.02488889-45.51111111-45.51111111-45.51111111z" />
</svg>
